<svg version="1.1" xmlns="http://www.w3.org/2000/svg" x="0" y="0" viewBox="0 0 1200 800" xml:space="preserve"><style type="text/css">.st0{display:none}.st1,.st2,.st3{stroke:#055555;stroke-width:10;stroke-miterlimit:10}.st1{display:inline;fill:orange}.st2,.st3{fill:none}.st3{stroke:#555}.st4{fill:#055555}.st5{font-family:&amp;apos;PlayfairDisplay-Regular&amp;apos;}.st6{font-size:50px}.st7{font-size:80px}</style><path class="st0 st1" d="M0 0h1200v800H0z" id="Layer_1"/><g id="Layer_2"><path class="st2" d="M39 119.3l119.5-68.8L278 119.3V257l-119.5 68.8L39 257z"/><path class="st3" d="M317 188.1l-121.4 68.8-121.5 68.7V50.7l121.5 68.7z"/><path class="st2" d="M435 211.3l-40 23.2-40-23.2v-46.6l40-23.2 40 23.2z"/><path class="st3" d="M395 330v360M393 335h40M393 511h40M391 686h40"/><path class="st2" d="M453 319.9l26-15.1 26 15.1v30.2l-26 15.1-26-15.1zM453 495.9l26-15.1 26 15.1v30.2l-26 15.1-26-15.1zM453 670.9l26-15.1 26 15.1v30.2l-26 15.1-26-15.1z"/></g><g id="Layer_3"><text transform="translate(537 704)" class="st4 st5 st6">WordPress Development</text><text transform="translate(466 220)" class="st4 st5 st7">Dream Not of Today</text><text transform="translate(538 348)" class="st4 st5 st6">Web Delevopment</text><text transform="translate(538 525)" class="st4 st5 st6">UI Development</text></g></svg>