<?xml version="1.0" encoding="utf-8"?>
<!-- Generator: Adobe Illustrator 18.1.1, SVG Export Plug-In . SVG Version: 6.00 Build 0)  -->
<svg version="1.1" xmlns="http://www.w3.org/2000/svg" xmlns:xlink="http://www.w3.org/1999/xlink" x="0px" y="0px"
	 viewBox="0 0 1280 1040" enable-background="new 0 0 1280 1040" xml:space="preserve">
<g id="background">
	<rect fill="#231F20" stroke="#FFFFFF" stroke-miterlimit="10" width="1280" height="1040"/>
	<g id="Layer_2">
	</g>
</g>
<g id="rightStars">
	<circle id="rightStar54" fill="#FFFFFF" stroke="#FFFFFF" stroke-miterlimit="10" cx="1082.9" cy="268.1" r="8.4"/>
	<circle id="rightStar53" fill="#FFFFFF" stroke="#FFFFFF" stroke-miterlimit="10" cx="933.6" cy="467.9" r="8.4"/>
	<circle id="rightStar52" fill="#FFFFFF" stroke="#FFFFFF" stroke-miterlimit="10" cx="758.3" cy="461.1" r="8.4"/>
	<circle id="rightStar51" fill="#FFFFFF" stroke="#FFFFFF" stroke-miterlimit="10" cx="1126.3" cy="525.3" r="8.4"/>
	<circle id="rightStar50" fill="#FFFFFF" stroke="#FFFFFF" stroke-miterlimit="10" cx="1012.8" cy="422" r="8.4"/>
	<circle id="rightStar49" fill="#FFFFFF" stroke="#FFFFFF" stroke-miterlimit="10" cx="919.5" cy="350.3" r="8.4"/>
	<circle id="rightStar48" fill="#FFFFFF" stroke="#FFFFFF" stroke-miterlimit="10" cx="1025" cy="346.1" r="8.4"/>
	<circle id="rightStar47" fill="#FFFFFF" stroke="#FFFFFF" stroke-miterlimit="10" cx="1099.8" cy="87.6" r="8.4"/>
	<circle id="rightStar46" fill="#FFFFFF" stroke="#FFFFFF" stroke-miterlimit="10" cx="1024.7" cy="202.4" r="8.4"/>
	<circle id="rightStar45" fill="#FFFFFF" stroke="#FFFFFF" stroke-miterlimit="10" cx="964.2" cy="235.7" r="8.4"/>
	<circle id="rightStar44" fill="#FFFFFF" stroke="#FFFFFF" stroke-miterlimit="10" cx="860" cy="272.1" r="8.4"/>
	<circle id="rightStar43" fill="#FFFFFF" stroke="#FFFFFF" stroke-miterlimit="10" cx="805.5" cy="340.2" r="8.4"/>
	<circle id="rightStar42" fill="#FFFFFF" stroke="#FFFFFF" stroke-miterlimit="10" cx="957.2" cy="177.5" r="8.4"/>
	<circle id="rightStar41" fill="#FFFFFF" stroke="#FFFFFF" stroke-miterlimit="10" cx="944.6" cy="142.9" r="8.4"/>
	<circle id="rightStar40" fill="#FFFFFF" stroke="#FFFFFF" stroke-miterlimit="10" cx="883.8" cy="194.8" r="8.4"/>
	<circle id="rightStar39" fill="#FFFFFF" stroke="#FFFFFF" stroke-miterlimit="10" cx="832.4" cy="113.1" r="8.4"/>
	<circle id="rightStar38" fill="#FFFFFF" stroke="#FFFFFF" stroke-miterlimit="10" cx="734.8" cy="237.1" r="8.4"/>
	<circle id="rightStar37" fill="#FFFFFF" stroke="#FFFFFF" stroke-miterlimit="10" cx="834.3" cy="581.2" r="8.4"/>
	<circle id="rightStar36" fill="#FFFFFF" stroke="#FFFFFF" stroke-miterlimit="10" cx="842.7" cy="425.4" r="8.4"/>
	<circle id="rightStar35" fill="#FFFFFF" stroke="#FFFFFF" stroke-miterlimit="10" cx="717.9" cy="87.6" r="8.4"/>
	<circle id="rightStar34" fill="#FFFFFF" stroke="#FFFFFF" stroke-miterlimit="10" cx="800.6" cy="169.1" r="8.4"/>
	<circle id="rightStar33" fill="#FFFFFF" stroke="#FFFFFF" stroke-miterlimit="10" cx="1126.3" cy="401.2" r="8.4"/>
	<line id="rightStar32" fill="none" stroke="#FFFFFF" stroke-miterlimit="10" x1="1099.8" y1="87.6" x2="1082.9" y2="268.1"/>
	<circle id="rightStar31" fill="#FFFFFF" stroke="#FFFFFF" stroke-miterlimit="10" cx="644.1" cy="16.4" r="8.4"/>
	<circle id="rightStar30" fill="#FFFFFF" stroke="#FFFFFF" stroke-miterlimit="10" cx="813.9" cy="14.6" r="8.4"/>
	<circle id="rightStar29" fill="#FFFFFF" stroke="#FFFFFF" stroke-miterlimit="10" cx="1018.9" cy="14.6" r="8.4"/>
	<circle id="rightStar28" fill="#FFFFFF" stroke="#FFFFFF" stroke-miterlimit="10" cx="903.5" cy="37" r="8.4"/>
	<circle id="rightStar27" fill="#FFFFFF" stroke="#FFFFFF" stroke-miterlimit="10" cx="644.1" cy="186.1" r="8.4"/>
	<circle id="rightStar26" fill="#FFFFFF" stroke="#FFFFFF" stroke-miterlimit="10" cx="688.5" cy="297" r="8.4"/>
	<circle id="rightStar25" fill="#FFFFFF" stroke="#FFFFFF" stroke-miterlimit="10" cx="688.5" cy="297" r="8.4"/>
	<circle id="rightStar24" fill="#FFFFFF" stroke="#FFFFFF" stroke-miterlimit="10" cx="644.1" cy="488.2" r="8.4"/>
	<circle id="rightStar23" fill="#FFFFFF" stroke="#FFFFFF" stroke-miterlimit="10" cx="669.4" cy="346.1" r="8.4"/>
	<circle id="rightStar22" fill="#FFFFFF" stroke="#FFFFFF" stroke-miterlimit="10" cx="1260.1" cy="624.6" r="8.4"/>
	<circle id="rightStar21" fill="#FFFFFF" stroke="#FFFFFF" stroke-miterlimit="10" cx="1117.9" cy="763.1" r="8.4"/>
	<circle id="rightStar20" fill="#FFFFFF" stroke="#FFFFFF" stroke-miterlimit="10" cx="1029.9" cy="667.9" r="8.4"/>
	<circle id="rightStar19" fill="#FFFFFF" stroke="#FFFFFF" stroke-miterlimit="10" cx="895.1" cy="754.6" r="8.4"/>
	<circle id="rightStar18" fill="#FFFFFF" stroke="#FFFFFF" stroke-miterlimit="10" cx="731.9" cy="651.2" r="8.4"/>
	<circle id="rightStar17" fill="#FFFFFF" stroke="#FFFFFF" stroke-miterlimit="10" cx="1256.2" cy="16.4" r="8.4"/>
	<circle id="rightStar16" fill="#FFFFFF" stroke="#FFFFFF" stroke-miterlimit="10" cx="834.3" cy="882.7" r="8.4"/>
	<circle id="rightStar15" fill="#FFFFFF" stroke="#FFFFFF" stroke-miterlimit="10" cx="1012.8" cy="827.1" r="8.4"/>
	<circle id="rightStar14" fill="#FFFFFF" stroke="#FFFFFF" stroke-miterlimit="10" cx="1259.2" cy="827.1" r="8.4"/>
	<circle id="rightStar13" fill="#FFFFFF" stroke="#FFFFFF" stroke-miterlimit="10" cx="1259.6" cy="104.6" r="8.4"/>
	<circle id="rightStar12" fill="#FFFFFF" stroke="#FFFFFF" stroke-miterlimit="10" cx="1156.9" cy="215.3" r="8.4"/>
	<circle id="rightStar11" fill="#FFFFFF" stroke="#FFFFFF" stroke-miterlimit="10" cx="1260.5" cy="297" r="8.4"/>
	<circle id="rightStar10" fill="#FFFFFF" stroke="#FFFFFF" stroke-miterlimit="10" cx="1259.2" cy="476.4" r="8.4"/>
	<circle id="rightStar9" fill="#FFFFFF" stroke="#FFFFFF" stroke-miterlimit="10" cx="643.8" cy="959.9" r="8.4"/>
	<circle id="rightStar8" fill="#FFFFFF" stroke="#FFFFFF" stroke-miterlimit="10" cx="643.8" cy="790.3" r="8.4"/>
	<circle id="rightStar7" fill="#FFFFFF" stroke="#FFFFFF" stroke-miterlimit="10" cx="643.8" cy="488.2" r="8.4"/>
	<circle id="rightStar6" fill="#FFFFFF" stroke="#FFFFFF" stroke-miterlimit="10" cx="697" cy="1025.7" r="8.4"/>
	<circle id="rightStar5" fill="#FFFFFF" stroke="#FFFFFF" stroke-miterlimit="10" cx="875.4" cy="1025.7" r="8.4"/>
	<circle id="rightStar4" fill="#FFFFFF" stroke="#FFFFFF" stroke-miterlimit="10" cx="758.3" cy="968.3" r="8.4"/>
	<circle id="rightStar3" fill="#FFFFFF" stroke="#FFFFFF" stroke-miterlimit="10" cx="1117.9" cy="1025.7" r="8.4"/>
	<circle id="rightStar2" fill="#FFFFFF" stroke="#FFFFFF" stroke-miterlimit="10" cx="1259.2" cy="968.3" r="8.4"/>
	<circle id="rightStar1" fill="#FFFFFF" stroke="#FFFFFF" stroke-miterlimit="10" cx="1012.8" cy="968.3" r="8.4"/>
</g>
<g id="rightLines">
	<line fill="none" stroke="#FFFFFF" stroke-miterlimit="10" x1="813.9" y1="14.6" x2="1018.9" y2="14.6"/>
	<line fill="none" stroke="#FFFFFF" stroke-miterlimit="10" x1="1018.9" y1="14.6" x2="1256.2" y2="16.4"/>
	<line fill="none" stroke="#FFFFFF" stroke-miterlimit="10" x1="1256.2" y1="16.4" x2="1256.2" y2="108.2"/>
	<line fill="none" stroke="#FFFFFF" stroke-miterlimit="10" x1="1260.5" y1="104.6" x2="1260.5" y2="295.1"/>
	<line fill="none" stroke="#FFFFFF" stroke-miterlimit="10" x1="1260.5" y1="295.1" x2="1260.5" y2="473.7"/>
	<line fill="none" stroke="#FFFFFF" stroke-miterlimit="10" x1="1259.2" y1="476.4" x2="1259.2" y2="628.6"/>
	<line fill="none" stroke="#FFFFFF" stroke-miterlimit="10" x1="1259.2" y1="624.6" x2="1259.2" y2="827.1"/>
	<line fill="none" stroke="#FFFFFF" stroke-miterlimit="10" x1="875.4" y1="1025.7" x2="1117.9" y2="1025.7"/>
	<line fill="none" stroke="#FFFFFF" stroke-miterlimit="10" x1="697" y1="1025.7" x2="591.2" y2="1025.7"/>
	<line fill="none" stroke="#FFFFFF" stroke-miterlimit="10" x1="644.1" y1="15.5" x2="677.8" y2="-17"/>
	<line fill="none" stroke="#FFFFFF" stroke-miterlimit="10" x1="813.9" y1="14.6" x2="765.9" y2="-17"/>
	<line fill="none" stroke="#FFFFFF" stroke-miterlimit="10" x1="1018.9" y1="14.6" x2="1018.9" y2="-11"/>
	<line fill="none" stroke="#FFFFFF" stroke-miterlimit="10" x1="1256.2" y1="16.4" x2="1288.3" y2="-7"/>
	<line fill="none" stroke="#FFFFFF" stroke-miterlimit="10" x1="1259.6" y1="104.6" x2="1298.3" y2="128.3"/>
	<line fill="none" stroke="#FFFFFF" stroke-miterlimit="10" x1="1264.7" y1="297" x2="1298.3" y2="311.2"/>
	<line fill="none" stroke="#FFFFFF" stroke-miterlimit="10" x1="1260.5" y1="476.4" x2="1294.3" y2="446.7"/>
	<line fill="none" stroke="#FFFFFF" stroke-miterlimit="10" x1="1260.5" y1="624.6" x2="1294.3" y2="584.3"/>
	<line fill="none" stroke="#FFFFFF" stroke-miterlimit="10" x1="1259.2" y1="827.1" x2="1294.3" y2="827.1"/>
	<line fill="none" stroke="#FFFFFF" stroke-miterlimit="10" x1="1260.1" y1="968.3" x2="1289.7" y2="1002.3"/>
	<line id="rightLine115_3_" fill="none" stroke="#FFFFFF" stroke-miterlimit="10" x1="842.7" y1="425.4" x2="933.6" y2="467.9"/>
	<line id="rightLine114_3_" fill="none" stroke="#FFFFFF" stroke-miterlimit="10" x1="933.6" y1="467.9" x2="1012.8" y2="422"/>
	<line id="rightLine113_3_" fill="none" stroke="#FFFFFF" stroke-miterlimit="10" x1="1012.8" y1="422" x2="919.5" y2="350.3"/>
	<line id="rightLine112_3_" fill="none" stroke="#FFFFFF" stroke-miterlimit="10" x1="919.5" y1="350.3" x2="1025" y2="346.1"/>
	<line id="rightLine111_3_" fill="none" stroke="#FFFFFF" stroke-miterlimit="10" x1="1021.2" y1="346.3" x2="963.8" y2="232.4"/>
	<line id="rightLine110_3_" fill="none" stroke="#FFFFFF" stroke-miterlimit="10" x1="1025.7" y1="200.5" x2="1024.7" y2="202.4"/>
	<line id="rightLine109_3_" fill="none" stroke="#FFFFFF" stroke-miterlimit="10" x1="1024.7" y1="202.4" x2="957.2" y2="177.5"/>
	<line id="rightLine108_3_" fill="none" stroke="#FFFFFF" stroke-miterlimit="10" x1="957.2" y1="177.5" x2="944.6" y2="142.9"/>
	<line id="rightLine107_3_" fill="none" stroke="#FFFFFF" stroke-miterlimit="10" x1="941.4" y1="143.3" x2="883.8" y2="194.8"/>
	<line id="rightLine106_3_" fill="none" stroke="#FFFFFF" stroke-miterlimit="10" x1="883.8" y1="194.8" x2="860" y2="272.1"/>
	<line id="rightLine105_3_" fill="none" stroke="#FFFFFF" stroke-miterlimit="10" x1="860" y1="272.1" x2="805.5" y2="340.2"/>
	<line id="rightLine104_3_" fill="none" stroke="#FFFFFF" stroke-miterlimit="10" x1="805.5" y1="340.2" x2="842.7" y2="425.4"/>
	<line id="rightLine103_3_" fill="none" stroke="#FFFFFF" stroke-miterlimit="10" x1="805.5" y1="340.2" x2="734.8" y2="237.1"/>
	<line id="rightLine102_3_" fill="none" stroke="#FFFFFF" stroke-miterlimit="10" x1="758.5" y1="462.2" x2="842.7" y2="425.4"/>
	<line id="rightLine101_3_" fill="none" stroke="#FFFFFF" stroke-miterlimit="10" x1="805.5" y1="340.2" x2="758.5" y2="462.2"/>
	<line id="rightLine100_3_" fill="none" stroke="#FFFFFF" stroke-miterlimit="10" x1="842.7" y1="425.4" x2="919.5" y2="350.3"/>
	<line id="rightLine99_3_" fill="none" stroke="#FFFFFF" stroke-miterlimit="10" x1="919.5" y1="350.3" x2="860" y2="272.1"/>
	<line id="rightLine98_3_" fill="none" stroke="#FFFFFF" stroke-miterlimit="10" x1="964.2" y1="235.7" x2="920" y2="354.5"/>
	<line id="rightLine97_3_" fill="none" stroke="#FFFFFF" stroke-miterlimit="10" x1="964.2" y1="235.7" x2="957.2" y2="177.5"/>
	<line id="rightLine96_3_" fill="none" stroke="#FFFFFF" stroke-miterlimit="10" x1="758.3" y1="461.1" x2="834.3" y2="581.2"/>
	<line id="rightLine95_3_" fill="none" stroke="#FFFFFF" stroke-miterlimit="10" x1="834.3" y1="581.2" x2="933.6" y2="467.9"/>
	<line id="rightLine94_3_" fill="none" stroke="#FFFFFF" stroke-miterlimit="10" x1="933.6" y1="467.9" x2="1126.3" y2="525.3"/>
	<line id="rightLine93_3_" fill="none" stroke="#FFFFFF" stroke-miterlimit="10" x1="1126.3" y1="525.3" x2="1012.8" y2="422"/>
	<line id="rightLine92_3_" fill="none" stroke="#FFFFFF" stroke-miterlimit="10" x1="944.1" y1="139.1" x2="832.4" y2="113.1"/>
	<line id="rightLine91_3_" fill="none" stroke="#FFFFFF" stroke-miterlimit="10" x1="832.4" y1="113.1" x2="883.8" y2="194.8"/>
	<line id="rightLine90_3_" fill="none" stroke="#FFFFFF" stroke-miterlimit="10" x1="883.8" y1="194.8" x2="734.8" y2="237.1"/>
	<line id="rightLine89_3_" fill="none" stroke="#FFFFFF" stroke-miterlimit="10" x1="734.8" y1="237.1" x2="758.3" y2="461.1"/>
	<line id="rightLine88_3_" fill="none" stroke="#FFFFFF" stroke-miterlimit="10" x1="1012.8" y1="422" x2="1025" y2="346.1"/>
	<line id="rightLine87_3_" fill="none" stroke="#FFFFFF" stroke-miterlimit="10" x1="1099.8" y1="87.6" x2="1024.7" y2="202.4"/>
	<line id="rightLine86_3_" fill="none" stroke="#FFFFFF" stroke-miterlimit="10" x1="1099.8" y1="87.6" x2="960.7" y2="177.5"/>
	<line id="rightLine85_3_" fill="none" stroke="#FFFFFF" stroke-miterlimit="10" x1="1099.8" y1="87.6" x2="944.6" y2="142.9"/>
	<circle id="rightLine84_3_" fill="#FFFFFF" stroke="#FFFFFF" stroke-miterlimit="10" cx="955.8" cy="598.1" r="8.4"/>
	<line id="rightLine83_3_" fill="none" stroke="#FFFFFF" stroke-miterlimit="10" x1="1024.7" y1="347.6" x2="1082.9" y2="268.1"/>
	<line id="rightLine82_3_" fill="none" stroke="#FFFFFF" stroke-miterlimit="10" x1="1082.9" y1="268.1" x2="964.2" y2="235.7"/>
	<line id="rightLine81_3_" fill="none" stroke="#FFFFFF" stroke-miterlimit="10" x1="1082.9" y1="268.1" x2="1024.7" y2="202.4"/>
	<line id="rightLine80_3_" fill="none" stroke="#FFFFFF" stroke-miterlimit="10" x1="860" y1="272.1" x2="964.2" y2="235.7"/>
	<line id="rightLine79_3_" fill="none" stroke="#FFFFFF" stroke-miterlimit="10" x1="883.8" y1="194.8" x2="957.2" y2="177.5"/>
	<line id="rightLine78_3_" fill="none" stroke="#FFFFFF" stroke-miterlimit="10" x1="883.8" y1="194.8" x2="964.2" y2="235.7"/>
	<line id="rightLine77_3_" fill="none" stroke="#FFFFFF" stroke-miterlimit="10" x1="1126.3" y1="401.2" x2="1126.3" y2="525.3"/>
	<line id="rightLine76_3_" fill="none" stroke="#FFFFFF" stroke-miterlimit="10" x1="1126.3" y1="401.2" x2="1024.7" y2="347.6"/>
	<line id="rightLine75_3_" fill="none" stroke="#FFFFFF" stroke-miterlimit="10" x1="1126.3" y1="401.2" x2="1082.9" y2="268.1"/>
	<line id="rightLine74_3_" fill="none" stroke="#FFFFFF" stroke-miterlimit="10" x1="933.6" y1="467.9" x2="955.8" y2="598.1"/>
	<line id="rightLine73_3_" fill="none" stroke="#FFFFFF" stroke-miterlimit="10" x1="955.8" y1="598.1" x2="1126.3" y2="525.3"/>
	<line id="rightLine72_3_" fill="none" stroke="#FFFFFF" stroke-miterlimit="10" x1="955.8" y1="598.1" x2="834.3" y2="581.2"/>
	<line id="rightLine71_3_" fill="none" stroke="#FFFFFF" stroke-miterlimit="10" x1="734.8" y1="237.1" x2="860" y2="272.1"/>
	<line id="rightLine70_3_" fill="none" stroke="#FFFFFF" stroke-miterlimit="10" x1="800.6" y1="169.1" x2="734.8" y2="237.1"/>
	<line id="rightLine69_3_" fill="none" stroke="#FFFFFF" stroke-miterlimit="10" x1="832.4" y1="113.1" x2="800.6" y2="169.1"/>
	<line id="rightLine68_3_" fill="none" stroke="#FFFFFF" stroke-miterlimit="10" x1="800.6" y1="169.1" x2="883.2" y2="193.9"/>
	<line id="rightLine67_3_" fill="none" stroke="#FFFFFF" stroke-miterlimit="10" x1="800.6" y1="169.1" x2="717.9" y2="87.6"/>
	<line id="rightLine66_3_" fill="none" stroke="#FFFFFF" stroke-miterlimit="10" x1="717.9" y1="87.6" x2="734.8" y2="237.1"/>
	<line id="rightLine65_3_" fill="none" stroke="#FFFFFF" stroke-miterlimit="10" x1="717.9" y1="87.6" x2="832.4" y2="113.1"/>
	<line id="rightLine64_3_" fill="none" stroke="#FFFFFF" stroke-miterlimit="10" x1="903.5" y1="37" x2="944.6" y2="142.9"/>
	<line id="rightLine63_3_" fill="none" stroke="#FFFFFF" stroke-miterlimit="10" x1="813.9" y1="14.6" x2="832.4" y2="113.1"/>
	<line id="rightLine62_3_" fill="none" stroke="#FFFFFF" stroke-miterlimit="10" x1="903.5" y1="37" x2="813.9" y2="14.6"/>
	<line id="rightLine61_3_" fill="none" stroke="#FFFFFF" stroke-miterlimit="10" x1="903.5" y1="37" x2="1018.9" y2="14.6"/>
	<line id="rightLine60_3_" fill="none" stroke="#FFFFFF" stroke-miterlimit="10" x1="1018.9" y1="14.6" x2="1099.8" y2="87.6"/>
	<line id="rightLine59_3_" fill="none" stroke="#FFFFFF" stroke-miterlimit="10" x1="717.9" y1="87.6" x2="644.1" y2="186.1"/>
	<line id="rightLine58_3_" fill="none" stroke="#FFFFFF" stroke-miterlimit="10" x1="644.1" y1="186.1" x2="688.5" y2="297"/>
	<line id="rightLine57_3_" fill="none" stroke="#FFFFFF" stroke-miterlimit="10" x1="688.5" y1="297" x2="734.8" y2="237.1"/>
	<line id="rightLine56_3_" fill="none" stroke="#FFFFFF" stroke-miterlimit="10" x1="644.1" y1="186.1" x2="669.4" y2="346.1"/>
	<line id="rightLine55_3_" fill="none" stroke="#FFFFFF" stroke-miterlimit="10" x1="669.4" y1="346.1" x2="644.1" y2="488.2"/>
	<line id="rightLine54_3_" fill="none" stroke="#FFFFFF" stroke-miterlimit="10" x1="644.1" y1="488.2" x2="758.3" y2="461.1"/>
	<line id="rightLine53_3_" fill="none" stroke="#FFFFFF" stroke-miterlimit="10" x1="669.4" y1="346.1" x2="758.3" y2="461.1"/>
	<line id="rightLine52_3_" fill="none" stroke="#FFFFFF" stroke-miterlimit="10" x1="688.5" y1="297" x2="758.3" y2="461.1"/>
	<line id="rightLine51_3_" fill="none" stroke="#FFFFFF" stroke-miterlimit="10" x1="688.5" y1="297" x2="669.4" y2="346.1"/>
	<line id="rightLine50_3_" fill="none" stroke="#FFFFFF" stroke-miterlimit="10" x1="644.1" y1="16.4" x2="813.9" y2="14.6"/>
	<line id="rightLine49_3_" fill="none" stroke="#FFFFFF" stroke-miterlimit="10" x1="644.1" y1="16.4" x2="717.9" y2="87.6"/>
	<line id="rightLine48_3_" fill="none" stroke="#FFFFFF" stroke-miterlimit="10" x1="813.9" y1="14.6" x2="717.9" y2="87.6"/>
	<path id="rightLine47_6_" fill="none" stroke="#FFFFFF" stroke-miterlimit="10" d="M644.1,186.1"/>
	<path id="rightLine47_5_" fill="none" stroke="#FFFFFF" stroke-miterlimit="10" d="M644.1,15.5"/>
	<path id="rightLine46_6_" fill="none" stroke="#FFFFFF" stroke-miterlimit="10" d="M644.1,488.2"/>
	<path id="rightLine46_5_" fill="none" stroke="#FFFFFF" stroke-miterlimit="10" d="M644.1,186.1"/>
	<line id="rightLine45_3_" fill="none" stroke="#FFFFFF" stroke-miterlimit="10" x1="644.1" y1="488.2" x2="731.9" y2="651.2"/>
	<line id="rightLine44_3_" fill="none" stroke="#FFFFFF" stroke-miterlimit="10" x1="731.9" y1="651.2" x2="834.3" y2="581.2"/>
	<line id="rightLine43_3_" fill="none" stroke="#FFFFFF" stroke-miterlimit="10" x1="731.9" y1="651.2" x2="895.1" y2="754.6"/>
	<line id="rightLine42_3_" fill="none" stroke="#FFFFFF" stroke-miterlimit="10" x1="895.1" y1="754.6" x2="955.8" y2="598.1"/>
	<line id="rightLine41_3_" fill="none" stroke="#FFFFFF" stroke-miterlimit="10" x1="834.3" y1="581.2" x2="895.1" y2="754.6"/>
	<line id="rightLine40_3_" fill="none" stroke="#FFFFFF" stroke-miterlimit="10" x1="953" y1="598.1" x2="1029.9" y2="667.9"/>
	<line id="rightLine39_3_" fill="none" stroke="#FFFFFF" stroke-miterlimit="10" x1="1029.9" y1="667.9" x2="895.1" y2="754.6"/>
	<line id="rightLine38_3_" fill="none" stroke="#FFFFFF" stroke-miterlimit="10" x1="1029.9" y1="667.9" x2="1126.3" y2="525.3"/>
	<line id="rightLine37_3_" fill="none" stroke="#FFFFFF" stroke-miterlimit="10" x1="1126.3" y1="525.3" x2="1117.9" y2="763.1"/>
	<line id="rightLine36_3_" fill="none" stroke="#FFFFFF" stroke-miterlimit="10" x1="1126.3" y1="525.3" x2="1256.2" y2="624.6"/>
	<line id="rightLine35_3_" fill="none" stroke="#FFFFFF" stroke-miterlimit="10" x1="1256.2" y1="624.6" x2="1117.9" y2="763.1"/>
	<line id="rightLine34_3_" fill="none" stroke="#FFFFFF" stroke-miterlimit="10" x1="1117.9" y1="763.1" x2="895.1" y2="754.6"/>
	<line id="rightLine33_3_" fill="none" stroke="#FFFFFF" stroke-miterlimit="10" x1="1029.9" y1="667.9" x2="1117.9" y2="763.1"/>
	<line id="rightLine32_3_" fill="none" stroke="#FFFFFF" stroke-miterlimit="10" x1="1256.2" y1="476.4" x2="1126.3" y2="401.2"/>
	<line id="rightLine31_3_" fill="none" stroke="#FFFFFF" stroke-miterlimit="10" x1="1156.9" y1="215.3" x2="1082.9" y2="268.1"/>
	<line id="rightLine30_3_" fill="none" stroke="#FFFFFF" stroke-miterlimit="10" x1="1099.8" y1="87.6" x2="1156.9" y2="215.3"/>
	<line id="rightLine29_3_" fill="none" stroke="#FFFFFF" stroke-miterlimit="10" x1="1126.3" y1="401.2" x2="1260.5" y2="297"/>
	<line id="rightLine28_3_" fill="none" stroke="#FFFFFF" stroke-miterlimit="10" x1="1260.5" y1="297" x2="1156.9" y2="215.3"/>
	<line id="rightLine27_3_" fill="none" stroke="#FFFFFF" stroke-miterlimit="10" x1="1156.9" y1="215.3" x2="1259.6" y2="104.6"/>
	<line id="rightLine26_3_" fill="none" stroke="#FFFFFF" stroke-miterlimit="10" x1="1259.6" y1="104.6" x2="1099.8" y2="87.6"/>
	<line id="rightLine25_3_" fill="none" stroke="#FFFFFF" stroke-miterlimit="10" x1="1082.9" y1="268.1" x2="1260.5" y2="297"/>
	<line id="rightLine24_3_" fill="none" stroke="#FFFFFF" stroke-miterlimit="10" x1="1117.9" y1="763.1" x2="1259.2" y2="827.1"/>
	<line id="rightLine23_3_" fill="none" stroke="#FFFFFF" stroke-miterlimit="10" x1="1259.2" y1="827.1" x2="1012.8" y2="827.1"/>
	<line id="rightLine22_3_" fill="none" stroke="#FFFFFF" stroke-miterlimit="10" x1="1012.8" y1="827.1" x2="895.1" y2="758.9"/>
	<line id="rightLine21_3_" fill="none" stroke="#FFFFFF" stroke-miterlimit="10" x1="895.1" y1="758.9" x2="834.3" y2="882.7"/>
	<line id="rightLine20_3_" fill="none" stroke="#FFFFFF" stroke-miterlimit="10" x1="834.3" y1="882.7" x2="1012.8" y2="827.1"/>
	<line id="rightLine19_3_" fill="none" stroke="#FFFFFF" stroke-miterlimit="10" x1="731.9" y1="651.2" x2="834.3" y2="882.7"/>
	<line id="rightLine17_3_" fill="none" stroke="#FFFFFF" stroke-miterlimit="10" x1="1099.8" y1="87.6" x2="1256.2" y2="16.4"/>
	<line id="rightLine16_3_" fill="none" stroke="#FFFFFF" stroke-miterlimit="10" x1="1012.8" y1="827.1" x2="1012.8" y2="968.3"/>
	<line id="rightLine15_3_" fill="none" stroke="#FFFFFF" stroke-miterlimit="10" x1="1012.8" y1="968.3" x2="1117.9" y2="1025.7"/>
	<line id="rightLine14_3_" fill="none" stroke="#FFFFFF" stroke-miterlimit="10" x1="1117.9" y1="1025.7" x2="1259.2" y2="968.3"/>
	<line id="rightLine13_3_" fill="none" stroke="#FFFFFF" stroke-miterlimit="10" x1="1259.2" y1="968.3" x2="1012.8" y2="968.3"/>
	<line id="rightLine12_3_" fill="none" stroke="#FFFFFF" stroke-miterlimit="10" x1="1259.2" y1="827.1" x2="1259.2" y2="968.3"/>
	<line id="rightLine11_3_" fill="none" stroke="#FFFFFF" stroke-miterlimit="10" x1="834.3" y1="882.7" x2="1012.8" y2="968.3"/>
	<line id="rightLine10_3_" fill="none" stroke="#FFFFFF" stroke-miterlimit="10" x1="758.3" y1="968.3" x2="834.3" y2="882.7"/>
	<line id="rightLine9_3_" fill="none" stroke="#FFFFFF" stroke-miterlimit="10" x1="834.3" y1="882.7" x2="643.8" y2="790.3"/>
	<line id="rightLine8_3_" fill="none" stroke="#FFFFFF" stroke-miterlimit="10" x1="643.8" y1="790.3" x2="731.9" y2="651.2"/>
	<line id="rightLine7_3_" fill="none" stroke="#FFFFFF" stroke-miterlimit="10" x1="758.3" y1="968.3" x2="643.8" y2="959.9"/>
	<line id="rightLine6_3_" fill="none" stroke="#FFFFFF" stroke-miterlimit="10" x1="758.3" y1="968.3" x2="1012.8" y2="968.3"/>
	<line id="rightLine5_3_" fill="none" stroke="#FFFFFF" stroke-miterlimit="10" x1="758.3" y1="968.3" x2="875.4" y2="1025.7"/>
	<line id="rightLine4_3_" fill="none" stroke="#FFFFFF" stroke-miterlimit="10" x1="875.4" y1="1025.7" x2="1117.9" y2="1025.7"/>
	<line id="rightLine3_3_" fill="none" stroke="#FFFFFF" stroke-miterlimit="10" x1="875.4" y1="1025.7" x2="697" y2="1025.7"/>
	<line id="rightLine2_3_" fill="none" stroke="#FFFFFF" stroke-miterlimit="10" x1="697" y1="1025.7" x2="643.8" y2="959.9"/>
	<line id="rightLine1_3_" fill="none" stroke="#FFFFFF" stroke-miterlimit="10" x1="758.3" y1="968.3" x2="697" y2="1025.7"/>
</g>
<g id="leftStars">
	<circle id="lefttStar54" fill="#FFFFFF" stroke="#FFFFFF" stroke-miterlimit="10" cx="205.2" cy="268.1" r="8.4"/>
	<circle id="lefttStar53" fill="#FFFFFF" stroke="#FFFFFF" stroke-miterlimit="10" cx="354.6" cy="467.9" r="8.4"/>
	<circle id="lefttStar52" fill="#FFFFFF" stroke="#FFFFFF" stroke-miterlimit="10" cx="529.9" cy="461.1" r="8.4"/>
	<circle id="lefttStar51" fill="#FFFFFF" stroke="#FFFFFF" stroke-miterlimit="10" cx="161.9" cy="525.3" r="8.4"/>
	<circle id="lefttStar50" fill="#FFFFFF" stroke="#FFFFFF" stroke-miterlimit="10" cx="275.4" cy="422" r="8.4"/>
	<circle id="lefttStar49" fill="#FFFFFF" stroke="#FFFFFF" stroke-miterlimit="10" cx="368.7" cy="350.3" r="8.4"/>
	<circle id="lefttStar48" fill="#FFFFFF" stroke="#FFFFFF" stroke-miterlimit="10" cx="263.2" cy="346.1" r="8.4"/>
	<circle id="lefttStar47" fill="#FFFFFF" stroke="#FFFFFF" stroke-miterlimit="10" cx="188.4" cy="87.6" r="8.4"/>
	<circle id="lefttStar46" fill="#FFFFFF" stroke="#FFFFFF" stroke-miterlimit="10" cx="263.5" cy="202.4" r="8.4"/>
	<circle id="lefttStar45" fill="#FFFFFF" stroke="#FFFFFF" stroke-miterlimit="10" cx="324" cy="235.7" r="8.4"/>
	<circle id="lefttStar44" fill="#FFFFFF" stroke="#FFFFFF" stroke-miterlimit="10" cx="428.2" cy="272.1" r="8.4"/>
	<circle id="lefttStar43" fill="#FFFFFF" stroke="#FFFFFF" stroke-miterlimit="10" cx="482.7" cy="340.2" r="8.4"/>
	<circle id="lefttStar42" fill="#FFFFFF" stroke="#FFFFFF" stroke-miterlimit="10" cx="330.9" cy="177.5" r="8.4"/>
	<circle id="lefttStar41" fill="#FFFFFF" stroke="#FFFFFF" stroke-miterlimit="10" cx="343.6" cy="142.9" r="8.4"/>
	<circle id="lefttStar40" fill="#FFFFFF" stroke="#FFFFFF" stroke-miterlimit="10" cx="404.4" cy="194.8" r="8.4"/>
	<circle id="lefttStar39" fill="#FFFFFF" stroke="#FFFFFF" stroke-miterlimit="10" cx="455.8" cy="113.1" r="8.4"/>
	<circle id="lefttStar38" fill="#FFFFFF" stroke="#FFFFFF" stroke-miterlimit="10" cx="553.4" cy="237.1" r="8.4"/>
	<circle id="lefttStar37" fill="#FFFFFF" stroke="#FFFFFF" stroke-miterlimit="10" cx="453.8" cy="581.2" r="8.4"/>
	<circle id="lefttStar36" fill="#FFFFFF" stroke="#FFFFFF" stroke-miterlimit="10" cx="445.5" cy="425.4" r="8.4"/>
	<circle id="lefttStar35" fill="#FFFFFF" stroke="#FFFFFF" stroke-miterlimit="10" cx="570.3" cy="87.6" r="8.4"/>
	<circle id="lefttStar34" fill="#FFFFFF" stroke="#FFFFFF" stroke-miterlimit="10" cx="487.6" cy="169.1" r="8.4"/>
	<circle id="lefttStar33" fill="#FFFFFF" stroke="#FFFFFF" stroke-miterlimit="10" cx="161.9" cy="401.2" r="8.4"/>
	<line id="lefttStar32" fill="none" stroke="#FFFFFF" stroke-miterlimit="10" x1="188.4" y1="87.6" x2="205.2" y2="268.1"/>
	<circle id="lefttStar31" fill="#FFFFFF" stroke="#FFFFFF" stroke-miterlimit="10" cx="644" cy="16.4" r="8.4"/>
	<circle id="lefttStar30" fill="#FFFFFF" stroke="#FFFFFF" stroke-miterlimit="10" cx="474.3" cy="14.6" r="8.4"/>
	<circle id="lefttStar29" fill="#FFFFFF" stroke="#FFFFFF" stroke-miterlimit="10" cx="269.3" cy="14.6" r="8.4"/>
	<circle id="lefttStar28" fill="#FFFFFF" stroke="#FFFFFF" stroke-miterlimit="10" cx="384.7" cy="37" r="8.4"/>
	<circle id="lefttStar27" fill="#FFFFFF" stroke="#FFFFFF" stroke-miterlimit="10" cx="644" cy="186.1" r="8.4"/>
	<circle id="lefttStar26" fill="#FFFFFF" stroke="#FFFFFF" stroke-miterlimit="10" cx="599.7" cy="297" r="8.4"/>
	<circle id="lefttStar25" fill="#FFFFFF" stroke="#FFFFFF" stroke-miterlimit="10" cx="599.7" cy="297" r="8.4"/>
	<circle id="lefttStar24" fill="#FFFFFF" stroke="#FFFFFF" stroke-miterlimit="10" cx="644" cy="488.2" r="8.4"/>
	<circle id="lefttStar23" fill="#FFFFFF" stroke="#FFFFFF" stroke-miterlimit="10" cx="618.8" cy="346.1" r="8.4"/>
	<circle id="lefttStar22" fill="#FFFFFF" stroke="#FFFFFF" stroke-miterlimit="10" cx="28" cy="624.6" r="8.4"/>
	<circle id="lefttStar21" fill="#FFFFFF" stroke="#FFFFFF" stroke-miterlimit="10" cx="170.3" cy="763.1" r="8.4"/>
	<circle id="lefttStar20" fill="#FFFFFF" stroke="#FFFFFF" stroke-miterlimit="10" cx="258.2" cy="667.9" r="8.4"/>
	<circle id="lefttStar19" fill="#FFFFFF" stroke="#FFFFFF" stroke-miterlimit="10" cx="393.1" cy="754.6" r="8.4"/>
	<circle id="lefttStar18" fill="#FFFFFF" stroke="#FFFFFF" stroke-miterlimit="10" cx="556.3" cy="651.2" r="8.4"/>
	<circle id="lefttStar17" fill="#FFFFFF" stroke="#FFFFFF" stroke-miterlimit="10" cx="31.9" cy="16.4" r="8.4"/>
	<circle id="lefttStar16" fill="#FFFFFF" stroke="#FFFFFF" stroke-miterlimit="10" cx="453.8" cy="882.7" r="8.4"/>
	<circle id="lefttStar15" fill="#FFFFFF" stroke="#FFFFFF" stroke-miterlimit="10" cx="275.4" cy="827.1" r="8.4"/>
	<circle id="lefttStar14" fill="#FFFFFF" stroke="#FFFFFF" stroke-miterlimit="10" cx="29" cy="827.1" r="8.4"/>
	<circle id="lefttStar13" fill="#FFFFFF" stroke="#FFFFFF" stroke-miterlimit="10" cx="28.6" cy="104.6" r="8.4"/>
	<circle id="lefttStar12" fill="#FFFFFF" stroke="#FFFFFF" stroke-miterlimit="10" cx="131.3" cy="215.3" r="8.4"/>
	<circle id="lefttStar11" fill="#FFFFFF" stroke="#FFFFFF" stroke-miterlimit="10" cx="27.6" cy="297" r="8.4"/>
	<circle id="lefttStar10" fill="#FFFFFF" stroke="#FFFFFF" stroke-miterlimit="10" cx="29" cy="476.4" r="8.4"/>
	<circle id="lefttStar9" fill="#FFFFFF" stroke="#FFFFFF" stroke-miterlimit="10" cx="644.4" cy="959.9" r="8.4"/>
	<circle id="lefttStar8" fill="#FFFFFF" stroke="#FFFFFF" stroke-miterlimit="10" cx="644.4" cy="790.3" r="8.4"/>
	<circle id="lefttStar7" fill="#FFFFFF" stroke="#FFFFFF" stroke-miterlimit="10" cx="644.4" cy="488.2" r="8.4"/>
	<circle id="lefttStar6" fill="#FFFFFF" stroke="#FFFFFF" stroke-miterlimit="10" cx="591.2" cy="1025.7" r="8.4"/>
	<circle id="lefttStar5" fill="#FFFFFF" stroke="#FFFFFF" stroke-miterlimit="10" cx="412.8" cy="1025.7" r="8.4"/>
	<circle id="lefttStar4" fill="#FFFFFF" stroke="#FFFFFF" stroke-miterlimit="10" cx="529.9" cy="968.3" r="8.4"/>
	<circle id="lefttStar3" fill="#FFFFFF" stroke="#FFFFFF" stroke-miterlimit="10" cx="170.3" cy="1025.7" r="8.4"/>
	<circle id="lefttStar2" fill="#FFFFFF" stroke="#FFFFFF" stroke-miterlimit="10" cx="29" cy="968.3" r="8.4"/>
	<circle id="lefttStar1" fill="#FFFFFF" stroke="#FFFFFF" stroke-miterlimit="10" cx="275.4" cy="968.3" r="8.4"/>
</g>
<g id="leftLines">
	<line id="rightLine115_1_" fill="none" stroke="#FFFFFF" stroke-miterlimit="10" x1="445.5" y1="425.4" x2="354.6" y2="467.9"/>
	<line id="rightLine114_1_" fill="none" stroke="#FFFFFF" stroke-miterlimit="10" x1="354.6" y1="467.9" x2="275.4" y2="422"/>
	<line id="rightLine113_1_" fill="none" stroke="#FFFFFF" stroke-miterlimit="10" x1="275.4" y1="422" x2="368.7" y2="350.3"/>
	<line id="rightLine112_1_" fill="none" stroke="#FFFFFF" stroke-miterlimit="10" x1="368.7" y1="350.3" x2="263.2" y2="346.1"/>
	<line id="rightLine111_1_" fill="none" stroke="#FFFFFF" stroke-miterlimit="10" x1="266.9" y1="346.3" x2="324.4" y2="232.4"/>
	<line id="rightLine110_1_" fill="none" stroke="#FFFFFF" stroke-miterlimit="10" x1="262.5" y1="200.5" x2="263.5" y2="202.4"/>
	<line id="rightLine109_1_" fill="none" stroke="#FFFFFF" stroke-miterlimit="10" x1="263.5" y1="202.4" x2="330.9" y2="177.5"/>
	<line id="rightLine108_1_" fill="none" stroke="#FFFFFF" stroke-miterlimit="10" x1="330.9" y1="177.5" x2="343.6" y2="142.9"/>
	<line id="rightLine107_1_" fill="none" stroke="#FFFFFF" stroke-miterlimit="10" x1="346.8" y1="143.3" x2="404.4" y2="194.8"/>
	<line id="rightLine106_1_" fill="none" stroke="#FFFFFF" stroke-miterlimit="10" x1="404.4" y1="194.8" x2="428.2" y2="272.1"/>
	<line id="rightLine105_1_" fill="none" stroke="#FFFFFF" stroke-miterlimit="10" x1="428.2" y1="272.1" x2="482.7" y2="340.2"/>
	<line id="rightLine104_1_" fill="none" stroke="#FFFFFF" stroke-miterlimit="10" x1="482.7" y1="340.2" x2="445.5" y2="425.4"/>
	<line id="rightLine103_1_" fill="none" stroke="#FFFFFF" stroke-miterlimit="10" x1="482.7" y1="340.2" x2="553.4" y2="237.1"/>
	<line id="rightLine102_1_" fill="none" stroke="#FFFFFF" stroke-miterlimit="10" x1="529.7" y1="462.2" x2="445.5" y2="425.4"/>
	<line id="rightLine101_1_" fill="none" stroke="#FFFFFF" stroke-miterlimit="10" x1="482.7" y1="340.2" x2="529.7" y2="462.2"/>
	<line id="rightLine100_1_" fill="none" stroke="#FFFFFF" stroke-miterlimit="10" x1="445.5" y1="425.4" x2="368.7" y2="350.3"/>
	<line id="rightLine99_1_" fill="none" stroke="#FFFFFF" stroke-miterlimit="10" x1="368.7" y1="350.3" x2="428.2" y2="272.1"/>
	<line id="rightLine98_1_" fill="none" stroke="#FFFFFF" stroke-miterlimit="10" x1="324" y1="235.7" x2="368.2" y2="354.5"/>
	<line id="rightLine97_1_" fill="none" stroke="#FFFFFF" stroke-miterlimit="10" x1="324" y1="235.7" x2="330.9" y2="177.5"/>
	<line id="rightLine96_1_" fill="none" stroke="#FFFFFF" stroke-miterlimit="10" x1="529.9" y1="461.1" x2="453.8" y2="581.2"/>
	<line id="rightLine95_1_" fill="none" stroke="#FFFFFF" stroke-miterlimit="10" x1="453.8" y1="581.2" x2="354.6" y2="467.9"/>
	<line id="rightLine94_1_" fill="none" stroke="#FFFFFF" stroke-miterlimit="10" x1="354.6" y1="467.9" x2="161.9" y2="525.3"/>
	<line id="rightLine93_1_" fill="none" stroke="#FFFFFF" stroke-miterlimit="10" x1="161.9" y1="525.3" x2="275.4" y2="422"/>
	<line id="rightLine92_1_" fill="none" stroke="#FFFFFF" stroke-miterlimit="10" x1="344.1" y1="139.1" x2="455.8" y2="113.1"/>
	<line id="rightLine91_1_" fill="none" stroke="#FFFFFF" stroke-miterlimit="10" x1="455.8" y1="113.1" x2="404.4" y2="194.8"/>
	<line id="rightLine90_1_" fill="none" stroke="#FFFFFF" stroke-miterlimit="10" x1="404.4" y1="194.8" x2="553.4" y2="237.1"/>
	<line id="rightLine89_1_" fill="none" stroke="#FFFFFF" stroke-miterlimit="10" x1="553.4" y1="237.1" x2="529.9" y2="461.1"/>
	<line id="rightLine88_1_" fill="none" stroke="#FFFFFF" stroke-miterlimit="10" x1="275.4" y1="422" x2="263.2" y2="346.1"/>
	<line id="rightLine87_1_" fill="none" stroke="#FFFFFF" stroke-miterlimit="10" x1="188.4" y1="87.6" x2="263.5" y2="202.4"/>
	<line id="rightLine86_1_" fill="none" stroke="#FFFFFF" stroke-miterlimit="10" x1="188.4" y1="87.6" x2="327.5" y2="177.5"/>
	<line id="rightLine85_1_" fill="none" stroke="#FFFFFF" stroke-miterlimit="10" x1="188.4" y1="87.6" x2="343.6" y2="142.9"/>
	<circle id="rightLine84_1_" fill="#FFFFFF" stroke="#FFFFFF" stroke-miterlimit="10" cx="332.4" cy="598.1" r="8.4"/>
	<line id="rightLine83_1_" fill="none" stroke="#FFFFFF" stroke-miterlimit="10" x1="263.5" y1="347.6" x2="205.2" y2="268.1"/>
	<line id="rightLine82_1_" fill="none" stroke="#FFFFFF" stroke-miterlimit="10" x1="205.2" y1="268.1" x2="324" y2="235.7"/>
	<line id="rightLine81_1_" fill="none" stroke="#FFFFFF" stroke-miterlimit="10" x1="205.2" y1="268.1" x2="263.5" y2="202.4"/>
	<line id="rightLine80_1_" fill="none" stroke="#FFFFFF" stroke-miterlimit="10" x1="428.2" y1="272.1" x2="324" y2="235.7"/>
	<line id="rightLine79_1_" fill="none" stroke="#FFFFFF" stroke-miterlimit="10" x1="404.4" y1="194.8" x2="330.9" y2="177.5"/>
	<line id="rightLine78_1_" fill="none" stroke="#FFFFFF" stroke-miterlimit="10" x1="404.4" y1="194.8" x2="324" y2="235.7"/>
	<line id="rightLine77_1_" fill="none" stroke="#FFFFFF" stroke-miterlimit="10" x1="161.9" y1="401.2" x2="161.9" y2="525.3"/>
	<line id="rightLine76_1_" fill="none" stroke="#FFFFFF" stroke-miterlimit="10" x1="161.9" y1="401.2" x2="263.5" y2="347.6"/>
	<line id="rightLine75_1_" fill="none" stroke="#FFFFFF" stroke-miterlimit="10" x1="161.9" y1="401.2" x2="205.2" y2="268.1"/>
	<line id="rightLine74_1_" fill="none" stroke="#FFFFFF" stroke-miterlimit="10" x1="354.6" y1="467.9" x2="332.4" y2="598.1"/>
	<line id="rightLine73_1_" fill="none" stroke="#FFFFFF" stroke-miterlimit="10" x1="332.4" y1="598.1" x2="161.9" y2="525.3"/>
	<line id="rightLine72_1_" fill="none" stroke="#FFFFFF" stroke-miterlimit="10" x1="332.4" y1="598.1" x2="453.8" y2="581.2"/>
	<line id="rightLine71_1_" fill="none" stroke="#FFFFFF" stroke-miterlimit="10" x1="553.4" y1="237.1" x2="428.2" y2="272.1"/>
	<line id="rightLine70_1_" fill="none" stroke="#FFFFFF" stroke-miterlimit="10" x1="487.6" y1="169.1" x2="553.4" y2="237.1"/>
	<line id="rightLine69_1_" fill="none" stroke="#FFFFFF" stroke-miterlimit="10" x1="455.8" y1="113.1" x2="487.6" y2="169.1"/>
	<line id="rightLine68_1_" fill="none" stroke="#FFFFFF" stroke-miterlimit="10" x1="487.6" y1="169.1" x2="405" y2="193.9"/>
	<line id="rightLine67_1_" fill="none" stroke="#FFFFFF" stroke-miterlimit="10" x1="487.6" y1="169.1" x2="570.3" y2="87.6"/>
	<line id="rightLine66_1_" fill="none" stroke="#FFFFFF" stroke-miterlimit="10" x1="570.3" y1="87.6" x2="553.4" y2="237.1"/>
	<line id="rightLine65_1_" fill="none" stroke="#FFFFFF" stroke-miterlimit="10" x1="570.3" y1="87.6" x2="455.8" y2="113.1"/>
	<line id="rightLine64_1_" fill="none" stroke="#FFFFFF" stroke-miterlimit="10" x1="384.7" y1="37" x2="343.6" y2="142.9"/>
	<line id="rightLine63_1_" fill="none" stroke="#FFFFFF" stroke-miterlimit="10" x1="474.3" y1="14.6" x2="455.8" y2="113.1"/>
	<line id="rightLine62_1_" fill="none" stroke="#FFFFFF" stroke-miterlimit="10" x1="384.7" y1="37" x2="474.3" y2="14.6"/>
	<line id="rightLine61_1_" fill="none" stroke="#FFFFFF" stroke-miterlimit="10" x1="384.7" y1="37" x2="269.3" y2="14.6"/>
	<line id="rightLine60_1_" fill="none" stroke="#FFFFFF" stroke-miterlimit="10" x1="269.3" y1="14.6" x2="188.4" y2="87.6"/>
	<line id="rightLine59_1_" fill="none" stroke="#FFFFFF" stroke-miterlimit="10" x1="570.3" y1="87.6" x2="644" y2="186.1"/>
	<line id="rightLine58_1_" fill="none" stroke="#FFFFFF" stroke-miterlimit="10" x1="644" y1="186.1" x2="599.7" y2="297"/>
	<line id="rightLine57_1_" fill="none" stroke="#FFFFFF" stroke-miterlimit="10" x1="599.7" y1="297" x2="553.4" y2="237.1"/>
	<line id="rightLine56_1_" fill="none" stroke="#FFFFFF" stroke-miterlimit="10" x1="644" y1="186.1" x2="618.8" y2="346.1"/>
	<line id="rightLine55_1_" fill="none" stroke="#FFFFFF" stroke-miterlimit="10" x1="618.8" y1="346.1" x2="644" y2="488.2"/>
	<line id="rightLine54_1_" fill="none" stroke="#FFFFFF" stroke-miterlimit="10" x1="644" y1="488.2" x2="529.9" y2="461.1"/>
	<line id="rightLine53_1_" fill="none" stroke="#FFFFFF" stroke-miterlimit="10" x1="618.8" y1="346.1" x2="529.9" y2="461.1"/>
	<line id="rightLine52_1_" fill="none" stroke="#FFFFFF" stroke-miterlimit="10" x1="599.7" y1="297" x2="529.9" y2="461.1"/>
	<line id="rightLine51_1_" fill="none" stroke="#FFFFFF" stroke-miterlimit="10" x1="599.7" y1="297" x2="618.8" y2="346.1"/>
	<line id="rightLine50_1_" fill="none" stroke="#FFFFFF" stroke-miterlimit="10" x1="644" y1="16.4" x2="474.3" y2="14.6"/>
	<line id="rightLine49_1_" fill="none" stroke="#FFFFFF" stroke-miterlimit="10" x1="644" y1="16.4" x2="570.3" y2="87.6"/>
	<line id="rightLine48_1_" fill="none" stroke="#FFFFFF" stroke-miterlimit="10" x1="474.3" y1="14.6" x2="570.3" y2="87.6"/>
	<line id="rightLine47_1_" fill="none" stroke="#FFFFFF" stroke-miterlimit="10" x1="644" y1="15.5" x2="644" y2="186.1"/>
	<line id="rightLine46_1_" fill="none" stroke="#FFFFFF" stroke-miterlimit="10" x1="644" y1="186.1" x2="644" y2="488.2"/>
	<line id="rightLine45_1_" fill="none" stroke="#FFFFFF" stroke-miterlimit="10" x1="644" y1="488.2" x2="556.3" y2="651.2"/>
	<line id="rightLine44_1_" fill="none" stroke="#FFFFFF" stroke-miterlimit="10" x1="556.3" y1="651.2" x2="453.8" y2="581.2"/>
	<line id="rightLine43_1_" fill="none" stroke="#FFFFFF" stroke-miterlimit="10" x1="556.3" y1="651.2" x2="393.1" y2="754.6"/>
	<line id="rightLine42_1_" fill="none" stroke="#FFFFFF" stroke-miterlimit="10" x1="393.1" y1="754.6" x2="332.4" y2="598.1"/>
	<line id="rightLine41_1_" fill="none" stroke="#FFFFFF" stroke-miterlimit="10" x1="453.8" y1="581.2" x2="393.1" y2="754.6"/>
	<line id="rightLine40_1_" fill="none" stroke="#FFFFFF" stroke-miterlimit="10" x1="335.2" y1="598.1" x2="258.2" y2="667.9"/>
	<line id="rightLine39_1_" fill="none" stroke="#FFFFFF" stroke-miterlimit="10" x1="258.2" y1="667.9" x2="393.1" y2="754.6"/>
	<line id="rightLine38_1_" fill="none" stroke="#FFFFFF" stroke-miterlimit="10" x1="258.2" y1="667.9" x2="161.9" y2="525.3"/>
	<line id="rightLine37_1_" fill="none" stroke="#FFFFFF" stroke-miterlimit="10" x1="161.9" y1="525.3" x2="170.3" y2="763.1"/>
	<line id="rightLine36_1_" fill="none" stroke="#FFFFFF" stroke-miterlimit="10" x1="161.9" y1="525.3" x2="31.9" y2="624.6"/>
	<line id="rightLine35_1_" fill="none" stroke="#FFFFFF" stroke-miterlimit="10" x1="31.9" y1="624.6" x2="170.3" y2="763.1"/>
	<line id="rightLine34_1_" fill="none" stroke="#FFFFFF" stroke-miterlimit="10" x1="170.3" y1="763.1" x2="393.1" y2="754.6"/>
	<line id="rightLine33_1_" fill="none" stroke="#FFFFFF" stroke-miterlimit="10" x1="258.2" y1="667.9" x2="170.3" y2="763.1"/>
	<line id="rightLine32_1_" fill="none" stroke="#FFFFFF" stroke-miterlimit="10" x1="31.9" y1="476.4" x2="161.9" y2="401.2"/>
	<line id="rightLine31_1_" fill="none" stroke="#FFFFFF" stroke-miterlimit="10" x1="131.3" y1="215.3" x2="205.2" y2="268.1"/>
	<line id="rightLine30_1_" fill="none" stroke="#FFFFFF" stroke-miterlimit="10" x1="188.4" y1="87.6" x2="131.3" y2="215.3"/>
	<line id="rightLine29_1_" fill="none" stroke="#FFFFFF" stroke-miterlimit="10" x1="161.9" y1="401.2" x2="27.6" y2="297"/>
	<line id="rightLine28_1_" fill="none" stroke="#FFFFFF" stroke-miterlimit="10" x1="27.6" y1="297" x2="131.3" y2="215.3"/>
	<line id="rightLine27_1_" fill="none" stroke="#FFFFFF" stroke-miterlimit="10" x1="131.3" y1="215.3" x2="28.6" y2="104.6"/>
	<line id="rightLine26_1_" fill="none" stroke="#FFFFFF" stroke-miterlimit="10" x1="28.6" y1="104.6" x2="188.4" y2="87.6"/>
	<line id="rightLine25_1_" fill="none" stroke="#FFFFFF" stroke-miterlimit="10" x1="205.2" y1="268.1" x2="27.6" y2="297"/>
	<line id="rightLine24_1_" fill="none" stroke="#FFFFFF" stroke-miterlimit="10" x1="170.3" y1="763.1" x2="29" y2="827.1"/>
	<line id="rightLine23_1_" fill="none" stroke="#FFFFFF" stroke-miterlimit="10" x1="29" y1="827.1" x2="275.4" y2="827.1"/>
	<line id="rightLine22_1_" fill="none" stroke="#FFFFFF" stroke-miterlimit="10" x1="275.4" y1="827.1" x2="393.1" y2="758.9"/>
	<line id="rightLine21_1_" fill="none" stroke="#FFFFFF" stroke-miterlimit="10" x1="393.1" y1="758.9" x2="453.8" y2="882.7"/>
	<line id="rightLine20_1_" fill="none" stroke="#FFFFFF" stroke-miterlimit="10" x1="453.8" y1="882.7" x2="275.4" y2="827.1"/>
	<line id="rightLine19_1_" fill="none" stroke="#FFFFFF" stroke-miterlimit="10" x1="556.3" y1="651.2" x2="453.8" y2="882.7"/>
	<line id="rightLine17_1_" fill="none" stroke="#FFFFFF" stroke-miterlimit="10" x1="188.4" y1="87.6" x2="31.9" y2="16.4"/>
	<line id="rightLine16_1_" fill="none" stroke="#FFFFFF" stroke-miterlimit="10" x1="275.4" y1="827.1" x2="275.4" y2="968.3"/>
	<line id="rightLine15_1_" fill="none" stroke="#FFFFFF" stroke-miterlimit="10" x1="275.4" y1="968.3" x2="170.3" y2="1025.7"/>
	<line id="rightLine14_1_" fill="none" stroke="#FFFFFF" stroke-miterlimit="10" x1="170.3" y1="1025.7" x2="29" y2="968.3"/>
	<line id="rightLine13_1_" fill="none" stroke="#FFFFFF" stroke-miterlimit="10" x1="29" y1="968.3" x2="275.4" y2="968.3"/>
	<line id="rightLine12_1_" fill="none" stroke="#FFFFFF" stroke-miterlimit="10" x1="29" y1="827.1" x2="29" y2="968.3"/>
	<line id="rightLine11_1_" fill="none" stroke="#FFFFFF" stroke-miterlimit="10" x1="453.8" y1="882.7" x2="275.4" y2="968.3"/>
	<line id="rightLine10_1_" fill="none" stroke="#FFFFFF" stroke-miterlimit="10" x1="529.9" y1="968.3" x2="453.8" y2="882.7"/>
	<line id="rightLine9_1_" fill="none" stroke="#FFFFFF" stroke-miterlimit="10" x1="453.8" y1="882.7" x2="644.4" y2="790.3"/>
	<line id="rightLine8_1_" fill="none" stroke="#FFFFFF" stroke-miterlimit="10" x1="644.4" y1="790.3" x2="556.3" y2="651.2"/>
	<line id="rightLine7_1_" fill="none" stroke="#FFFFFF" stroke-miterlimit="10" x1="529.9" y1="968.3" x2="644.4" y2="959.9"/>
	<line id="rightLine6_1_" fill="none" stroke="#FFFFFF" stroke-miterlimit="10" x1="529.9" y1="968.3" x2="275.4" y2="968.3"/>
	<line id="rightLine5_1_" fill="none" stroke="#FFFFFF" stroke-miterlimit="10" x1="529.9" y1="968.3" x2="412.8" y2="1025.7"/>
	<line id="rightLine4_1_" fill="none" stroke="#FFFFFF" stroke-miterlimit="10" x1="412.8" y1="1025.7" x2="170.3" y2="1025.7"/>
	<line id="rightLine3_1_" fill="none" stroke="#FFFFFF" stroke-miterlimit="10" x1="412.8" y1="1025.7" x2="591.2" y2="1025.7"/>
	<line id="rightLine2_1_" fill="none" stroke="#FFFFFF" stroke-miterlimit="10" x1="591.2" y1="1025.7" x2="644.4" y2="959.9"/>
	<line id="rightLine1_1_" fill="none" stroke="#FFFFFF" stroke-miterlimit="10" x1="529.9" y1="968.3" x2="591.2" y2="1025.7"/>
	<line fill="none" stroke="#FFFFFF" stroke-miterlimit="10" x1="269.3" y1="14.6" x2="474.3" y2="14.6"/>
	<line fill="none" stroke="#FFFFFF" stroke-miterlimit="10" x1="269.3" y1="14.6" x2="31.9" y2="16.4"/>
	<line fill="none" stroke="#FFFFFF" stroke-miterlimit="10" x1="28.6" y1="16.4" x2="27.6" y2="104.6"/>
	<line fill="none" stroke="#FFFFFF" stroke-miterlimit="10" x1="27.6" y1="104.6" x2="27.6" y2="297"/>
	<line fill="none" stroke="#FFFFFF" stroke-miterlimit="10" x1="27.6" y1="297" x2="29" y2="476.4"/>
	<line fill="none" stroke="#FFFFFF" stroke-miterlimit="10" x1="29" y1="476.4" x2="28" y2="624.6"/>
	<line fill="none" stroke="#FFFFFF" stroke-miterlimit="10" x1="28" y1="624.6" x2="29" y2="827.1"/>
	<line fill="none" stroke="#FFFFFF" stroke-miterlimit="10" x1="170.3" y1="1025.7" x2="412.8" y2="1025.7"/>
	<line fill="none" stroke="#FFFFFF" stroke-miterlimit="10" x1="474.3" y1="14.6" x2="501.7" y2="-13"/>
	<line fill="none" stroke="#FFFFFF" stroke-miterlimit="10" x1="269.3" y1="14.6" x2="234.4" y2="-13"/>
	<line fill="none" stroke="#FFFFFF" stroke-miterlimit="10" x1="28.6" y1="16.4" x2="-13" y2="-8.3"/>
	<line fill="none" stroke="#FFFFFF" stroke-miterlimit="10" x1="29" y1="105.1" x2="-28.3" y2="73"/>
	<line fill="none" stroke="#FFFFFF" stroke-miterlimit="10" x1="29" y1="298" x2="-28.3" y2="268.1"/>
	<line fill="none" stroke="#FFFFFF" stroke-miterlimit="10" x1="29" y1="476.4" x2="-28.3" y2="476.4"/>
	<line fill="none" stroke="#FFFFFF" stroke-miterlimit="10" x1="27.6" y1="624.6" x2="-19.7" y2="654.3"/>
	<line fill="none" stroke="#FFFFFF" stroke-miterlimit="10" x1="27.6" y1="827.1" x2="-8.3" y2="807.7"/>
	<line fill="none" stroke="#FFFFFF" stroke-miterlimit="10" x1="29" y1="968.3" x2="-19.7" y2="1008.3"/>
	<path fill="none" stroke="#FFFFFF" stroke-miterlimit="10" d="M170.3,1051"/>
	<path fill="none" stroke="#FFFFFF" stroke-miterlimit="10" d="M170.3,1025.7"/>
	<path fill="none" stroke="#FFFFFF" stroke-miterlimit="10" d="M412.8,1025.7"/>
</g>
</svg>
