<?xml version="1.0" encoding="utf-8"?>
<!-- Generator: Adobe Illustrator 19.2.0, SVG Export Plug-In . SVG Version: 6.00 Build 0)  -->
<svg version="1.1" id="Layer_1" xmlns="http://www.w3.org/2000/svg" xmlns:xlink="http://www.w3.org/1999/xlink" x="0px" y="0px"
	 viewBox="0 0 1000 500" style="enable-background:new 0 0 1000 500;" xml:space="preserve">
<style type="text/css">
	.st0{fill:#FFFFFF;}
	.st1{font-family:'Oswald-Regular';}
	.st2{font-size:145.2178px;}
	.st3{fill:#00AEEF;}
	.st4{fill:none;stroke:#00AEEF;stroke-width:10;stroke-miterlimit:10;}
</style>
<text transform="matrix(1 0 0 1 144.1211 299.0479)"><tspan x="0" y="0" class="st0 st1 st2">U</tspan><tspan x="88.8" y="0" class="st3 st1 st2">Documentary </tspan></text>
<path class="st4" d="M127.2,299h-98h-3.5c-2.5,0-4.8-0.8-6.7-2.1c-3.2-2.2-5.3-5.8-5.3-9.9V185.5c0-6.6,5.4-12,12-12h101.5
	c6.6,0,12,5.4,12,12V287C139.2,293.6,133.8,299,127.2,299z"/>
<path class="st3" d="M5.3,311.9l98.3-59.9l-31.5-2l67.4-71.2l-10.1,0.2c-1-1.2-2.8-1.3-4-0.3L30,259.3l29.9,1.9L5.3,311.9z"/>
</svg>
